Coordinates
version=1
nRows=18
nColumns=33
inDegrees=yes

Units are S.I. units (second, meters, Newtons, ...)
Angles are in degrees.

endheader
time	ground_thorax_rot_x	ground_thorax_rot_y	ground_thorax_rot_z	ground_thorax_tx	ground_thorax_ty	ground_thorax_tz	clav_prot_r	clav_elev_r	scapula_abduction_r	scapula_elevation_r	scapula_upward_rot_r	scapula_winging_r	shoulder_elv_r	plane_of_elev_r	axial_rot_r	elbow_flexion_r	pro_sup_r	wrist_flex_r	wrist_dev_r	clav_prot_l	clav_elev_l	scapula_abduction_l	scapula_elevation_l	scapula_upward_rot_l	scapula_winging_l	shoulder_elv_l	plane_of_elev_l	axial_rot_l	elbow_flexion_l	pro_sup_l	wrist_flex_l	wrist_dev_l	
2.4600	16.975883	45.930848	9.769584	-0.017880	1.015192	-0.047639	-21.598227	26.673438	-16.834152	18.280446	45.000000	-13.105688	19.741914	-85.184022	41.561677	77.598278	-18.781401	22.242775	-5.331833	23.509491	-17.855790	-45.000000	1.635401	-18.429520	16.656743	43.571760	-12.646606	-30.695746	63.042570	9.428559	30.483060	-7.827703	
2.4700	16.951320	46.681004	9.051482	-0.017134	1.016777	-0.048794	-23.352014	24.706442	-18.315207	16.483863	45.000000	-14.129940	34.065174	-82.049177	55.865587	78.163790	-19.064330	21.290730	-5.191020	23.774275	-19.098348	-45.000000	2.019761	-20.173350	16.011320	45.190774	-10.224076	-29.750807	61.515420	9.382514	31.662457	-7.617161	
2.4800	16.970743	47.533819	8.162048	-0.016169	1.018673	-0.050114	-25.472144	22.408629	-20.220499	14.383439	45.000000	-15.329413	51.286233	-78.273847	73.141970	78.917829	-19.467868	20.249260	-5.064807	24.055433	-20.461805	-45.000000	2.453097	-22.050905	15.287724	47.055040	-7.661236	-28.752501	59.874743	9.339531	32.976804	-7.442884	
2.4900	16.985216	48.282042	7.359942	-0.015264	1.020396	-0.051372	-27.366302	20.332861	-21.932438	12.491177	45.000000	-16.385678	66.613809	-74.856330	88.572112	79.519655	-20.111861	19.238785	-4.944025	24.309870	-21.756859	-45.000000	2.910892	-23.702800	14.583269	48.687931	-5.375295	-27.757373	58.157250	9.223578	34.243285	-7.239545	
2.5000	16.978848	48.912649	6.683586	-0.014460	1.021854	-0.052542	-28.975935	18.545184	-23.395733	10.866305	45.000000	-17.268647	79.494761	-71.920526	101.579408	79.939611	-20.914484	18.254208	-4.786066	24.541784	-22.941944	-45.000000	3.325745	-25.227273	13.927280	50.090398	-3.251680	-26.738831	56.363730	9.083279	35.477469	-7.010564	
2.5100	16.927270	49.270361	6.318421	-0.013966	1.022691	-0.053440	-29.857401	17.458094	-24.135636	9.889813	45.000000	-17.747514	86.396621	-70.202312	108.590920	79.925150	-21.884082	17.386037	-4.600480	24.718275	-23.884744	-45.000000	3.694585	-26.332935	13.388217	50.891362	-1.626165	-25.728444	54.527581	8.906475	36.526316	-6.738624	
2.5200	16.826558	49.391738	6.210855	-0.013719	1.023020	-0.054108	-30.141401	16.932559	-24.263872	9.433654	45.000000	-17.900980	88.362232	-69.480926	110.634503	79.539918	-22.850517	16.624722	-4.373971	24.847155	-24.605044	-45.000000	4.001285	-27.110052	12.960385	51.192308	-0.383833	-24.703007	52.665609	8.796837	37.357056	-6.456906	
2.5300	16.697622	49.325729	6.317661	-0.013680	1.022902	-0.054570	-29.926172	16.903248	-23.892986	9.432939	45.000000	-17.787058	86.216743	-69.566291	108.534467	78.832935	-23.744000	15.941307	-4.131267	24.936316	-25.146204	-45.000000	4.264109	-27.605343	12.622234	51.083255	0.536981	-23.687463	50.784335	8.797138	38.021104	-6.205003	
2.5400	16.574388	49.248038	6.427917	-0.013620	1.022763	-0.055002	-29.707947	16.906701	-23.536581	9.458049	45.000000	-17.674164	83.907424	-69.624147	106.270156	78.068106	-24.444015	15.260541	-3.885291	25.022452	-25.667817	-45.000000	4.503434	-28.123100	12.292533	50.986663	1.478043	-22.653385	48.880582	8.990747	38.619367	-6.040957	
2.5500	16.470869	49.167028	6.534575	-0.013544	1.022599	-0.055391	-29.486391	16.951263	-23.198983	9.515595	45.000000	-17.562367	81.451368	-69.655746	103.859438	77.259529	-25.051077	14.570437	-3.648670	25.107409	-26.186233	-45.000000	4.737670	-28.648943	11.961204	50.902155	2.419565	-21.591972	46.952806	9.299179	39.202358	-5.941153	
2.5600	16.370601	49.079708	6.641963	-0.013443	1.022466	-0.055747	-29.272056	16.989170	-22.868030	9.567152	45.000000	-17.455144	78.958329	-69.643774	101.429052	76.403478	-25.587935	13.908171	-3.416677	25.191178	-26.700668	-45.000000	4.971726	-29.167987	11.627540	50.834537	3.327396	-20.509795	45.029516	9.677995	39.690813	-5.866458	
2.5700	16.287862	49.000617	6.742677	-0.013325	1.022311	-0.056067	-29.062962	17.051914	-22.560029	9.637604	45.000000	-17.352492	76.401933	-69.597760	98.941264	75.510162	-26.087294	13.252624	-3.185046	25.273235	-27.209581	-45.000000	5.198329	-29.696546	11.293946	50.788452	4.245246	-19.409905	43.096484	10.108546	40.153547	-5.804120	
2.5800	16.219365	48.923900	6.831148	-0.013189	1.022166	-0.056350	-28.862509	17.123562	-22.271030	9.714224	45.000000	-17.255112	73.788641	-69.505982	96.415633	74.567129	-26.544607	12.639803	-2.960609	25.354412	-27.720410	-45.000000	5.418483	-30.248554	10.955882	50.789453	5.166857	-18.276958	41.170815	10.593710	40.533862	-5.757733	
2.5900	16.153276	48.861230	6.921703	-0.013037	1.022030	-0.056599	-28.675171	17.197258	-22.004106	9.791101	45.000000	-17.165299	71.184775	-69.376864	93.920184	73.582578	-26.965666	12.049347	-2.743045	25.434075	-28.228374	-45.000000	5.632762	-30.811847	10.616298	50.832229	6.081701	-17.133107	39.264102	11.122120	40.865488	-5.714509	
2.6000	16.095452	48.812201	7.004675	-0.012862	1.021920	-0.056825	-28.503396	17.259321	-21.755234	9.857324	45.000000	-17.083244	68.640268	-69.198129	91.507609	72.555606	-27.348333	11.502815	-2.535142	25.512274	-28.737298	-45.000000	5.844395	-31.386031	10.272787	50.918546	6.986788	-15.964551	37.383853	11.700329	41.119853	-5.675378	
2.6100	16.043249	48.790854	7.081551	-0.012668	1.021817	-0.057034	-28.348611	17.314923	-21.529965	9.916672	45.000000	-17.010172	66.180890	-68.992610	89.193525	71.495129	-27.715667	10.975189	-2.330055	25.588130	-29.239710	-45.000000	6.051547	-31.959584	9.930120	51.040229	7.888695	-14.799063	35.533273	12.319877	41.346347	-5.630536	
2.6200	16.019103	48.782833	7.126384	-0.012464	1.021689	-0.057221	-28.199742	17.395148	-21.329742	9.994805	45.000000	-16.940595	63.681257	-68.746264	86.860181	70.383972	-28.091004	10.492530	-2.125834	25.660266	-29.737818	-45.000000	6.241342	-32.571758	9.589350	51.216053	8.839717	-13.571252	33.695586	13.012296	41.535748	-5.605967	
2.6300	15.990719	48.783595	7.166050	-0.012257	1.021578	-0.057381	-28.057953	17.474784	-21.140561	10.071770	45.000000	-16.874744	61.184766	-68.465223	84.572417	69.212310	-28.475686	10.050887	-1.927213	25.727258	-30.225740	-45.000000	6.413667	-33.209467	9.254056	51.456110	9.796285	-12.303581	31.903880	13.771621	41.670129	-5.607086	
